<svg width="68" height="50" viewBox="0 0 68 50" fill="none" xmlns="http://www.w3.org/2000/svg">
<path opacity="0.8" d="M50.5863 7.73201C48.9639 6.51109 47.5743 6.28986 47.4137 6.74053C47.0041 7.8959 47.2611 8.89556 47.6788 10.2394C47.9278 9.79691 48.0723 9.55109 48.0723 9.55109C48.0723 9.55109 49.0281 8.46128 50.5863 7.73201Z" fill="black"/>
<path opacity="0.8" d="M52.1686 29.5744C52.5059 31.8112 52.795 34.3592 52.9075 36.8663C54.048 34.6541 54.9155 32.1307 55.4617 29.2959C55.6625 28.2472 55.8151 27.2394 55.9355 26.2726C54.8753 27.3869 53.6304 28.493 52.1686 29.5744Z" fill="black"/>
<path opacity="0.7" d="M30.0487 39.242C23.824 39.6926 17.6394 38.6275 12.507 36.6776C15.0451 42.0113 19.6233 46.2061 26.5147 47.8202C31.2454 48.9262 35.8959 48.8607 40.0484 47.6235C36.3216 45.7309 32.7314 42.6176 30.0487 39.242Z" fill="black"/>
<path opacity="0.7" d="M35.3016 2.97972C34.6992 1.52954 32.3057 0.0466099 28.37 0.66109C25.1091 1.16906 17.3824 3.92194 13.1094 11.9839C21.7116 8.2151 31.5506 6.69938 34.2895 5.98658C35.2132 4.87233 35.6871 3.90553 35.3016 2.97972Z" fill="black"/>
<path opacity="0.4" d="M10.9649 17.7601C11.4789 15.5807 12.2259 13.6636 13.1174 11.984C8.20994 14.1306 3.71207 17.0145 1.16596 20.9062C-2.60904 26.6578 3.20607 33.1385 12.515 36.6861C9.84845 31.0738 9.4308 24.208 10.9649 17.7601Z" fill="black"/>
<path opacity="0.46" d="M30.0487 39.2421C27.6391 36.2106 25.9685 32.9662 25.591 30.2133V30.2051C25.583 30.1805 25.5749 30.156 25.5669 30.1314C20.9003 16.4162 30.8117 10.1731 34.2895 5.9864C31.5587 6.6992 21.7115 8.21492 13.1094 11.9837C12.2178 13.6715 11.4789 15.5887 10.9568 17.7598C9.42274 24.216 9.84038 31.0736 12.4989 36.6776C17.6394 38.6276 23.824 39.6845 30.0487 39.2421Z" fill="black"/>
<path opacity="0.8" d="M30.0487 39.2421C27.6391 36.2106 25.9685 32.9662 25.591 30.2133V30.2051C25.583 30.1805 25.5749 30.156 25.5669 30.1314C20.9003 16.4162 30.8117 10.1731 34.2895 5.9864C31.5587 6.6992 21.7115 8.21492 13.1094 11.9837C12.2178 13.6715 11.4789 15.5887 10.9568 17.7598C9.42274 24.216 9.84038 31.0736 12.4989 36.6776C17.6394 38.6276 23.824 39.6845 30.0487 39.2421Z" fill="black"/>
<path opacity="0.4" d="M55.5259 7.4533C53.5822 6.75689 51.8714 7.12558 50.5783 7.73187C53.5179 9.94399 57.2367 15.4415 55.9275 26.281C63.8469 17.924 60.7788 9.32952 55.5259 7.4533Z" fill="black"/>
<path opacity="0.7" d="M50.5862 7.73183C49.0281 8.46102 48.0803 9.5507 48.0803 9.5507C48.0803 9.5507 47.9357 9.79649 47.6867 10.2389C48.3533 12.3445 49.4216 15.2858 48.9959 21.0128C48.9959 21.0538 48.9879 21.0865 48.9879 21.1275C49.8393 21.4716 50.4577 21.9714 50.7549 22.6678C50.9717 23.1758 51.6304 25.9696 52.1765 29.5827C53.6384 28.5012 54.8833 27.3952 55.9355 26.2809C57.2366 15.4415 53.5179 9.93577 50.5862 7.73183Z" fill="black"/>
<path opacity="0.4" d="M40.0564 47.6155C42.9961 49.1067 46.0241 49.8277 48.7549 49.3197C52.4014 48.6397 53.1725 42.8717 52.9074 36.858C50.04 42.4211 45.4619 46.0097 40.0564 47.6155Z" fill="black"/>
<path opacity="0.46" d="M42.2572 35.0638C41.9198 35.2031 41.6066 35.3178 41.3094 35.408C39.454 36.8335 36.2252 38.6196 31.2936 39.1358C30.8759 39.1768 30.4583 39.2177 30.0406 39.2423C32.7233 42.6178 36.3136 45.7312 40.0484 47.6238C45.4539 46.018 50.0321 42.4294 52.8994 36.8745C52.787 34.3674 52.4978 31.8194 52.1605 29.5827C49.5822 31.4998 46.3133 33.3597 42.2572 35.0638Z" fill="black"/>
<path opacity="0.9" d="M42.2572 35.0638C41.9198 35.2031 41.6066 35.3178 41.3094 35.408C39.454 36.8335 36.2252 38.6196 31.2936 39.1358C30.8759 39.1768 30.4583 39.2177 30.0406 39.2423C32.7233 42.6178 36.3136 45.7312 40.0484 47.6238C45.4539 46.018 50.0321 42.4294 52.8994 36.8745C52.787 34.3674 52.4978 31.8194 52.1605 29.5827C49.5822 31.4998 46.3133 33.3597 42.2572 35.0638Z" fill="black"/>
<path opacity="0.6" d="M30.0487 39.2423C30.4663 39.2095 30.884 39.1768 31.3016 39.1358C36.2332 38.6196 39.462 36.8336 41.3174 35.408C41.0443 35.4899 40.7953 35.5473 40.5624 35.5718C34.8276 38.7425 27.6632 36.0962 25.599 30.1972V30.2054C25.9684 32.9664 27.6471 36.2109 30.0487 39.2423Z" fill="black"/>
<path opacity="0.8" d="M43.3094 33.4823C43.3094 33.4905 43.3094 33.4905 43.3094 33.4905C43.3094 33.4905 42.6909 34.3508 41.3174 35.3995C41.6066 35.3175 41.9198 35.2029 42.2652 35.0554C46.3213 33.3512 49.5903 31.4914 52.1766 29.566C51.6385 25.9611 50.9718 23.159 50.7549 22.6511C50.4578 21.9547 49.8393 21.4549 48.988 21.1108C48.5783 26.1741 47.0442 29.9429 43.3094 33.4823Z" fill="black"/>
<path opacity="0.8" d="M43.3094 33.4906C43.3094 33.4906 43.3094 33.4906 43.3094 33.4824C43.0765 33.7036 42.8355 33.9249 42.5866 34.1379C41.944 34.7033 41.2613 35.1786 40.5625 35.5637C40.7954 35.5309 41.0444 35.4736 41.3175 35.3998C42.6829 34.351 43.3094 33.4906 43.3094 33.4906Z" fill="black"/>
<path d="M63.352 26.6475C64.7892 26.6475 65.9543 25.9099 65.9543 25C65.9543 24.0901 64.7892 23.3525 63.352 23.3525C61.9147 23.3525 60.7496 24.0901 60.7496 25C60.7496 25.9099 61.9147 26.6475 63.352 26.6475Z" fill="black"/>
<path d="M42.9156 20.7456C43.9744 16.5272 43.3479 12.7513 41.5162 12.312C39.6845 11.8726 37.3413 14.9362 36.2825 19.1546C35.2237 23.373 35.8502 27.1489 37.6819 27.5882C39.5136 28.0275 41.8568 24.964 42.9156 20.7456Z" fill="black"/>
<path d="M11.333 37.3603C10.674 36.5738 8.14921 36.6407 6.77983 38.2305C5.41045 39.8204 6.77127 41.36 8.64561 41.2262C10.5114 41.0839 12.0862 38.264 11.333 37.3603Z" fill="black"/>
<path d="M12.8479 40.2717C12.3429 40.2131 10.9564 40.7655 11.0249 41.8369C11.0934 42.9083 12.1376 43.5612 12.7795 43.0841C13.4214 42.5903 14.3799 40.4475 12.8479 40.2717Z" fill="black"/>
</svg>
